# xmcd
#
# Track frame offsets:
#	150
#	13563
#	26535
#	43038
#	60206
#	76797
#	90876
#	103658
#	116510
#	129969
#	141988
#	154791
#
# Disc length: 2264 seconds
#
# Revision: 1
# Processed by: cddbd v1.5.2PL0 Copyright (c) Steve Scherf et al.
# Submitted via: audiograbber 1.83.01
#
DISCID=8308d60c
DTITLE=Ashes Remain - What I've Become
DYEAR=2011
DGENRE=Christian Rock
TTITLE0=Keep Me Breathing
TTITLE1=On My Own
TTITLE2=Everything Good
TTITLE3=Without You
TTITLE4=Come Alive
TTITLE5=Unbroken
TTITLE6=End of Me
TTITLE7=Right Here
TTITLE8=Change My Life
TTITLE9=Take It Away
TTITLE10=Inside Of Me
TTITLE11=I Won't Run Away
EXTD=
EXTT0=
EXTT1=
EXTT2=
EXTT3=
EXTT4=
EXTT5=
EXTT6=
EXTT7=
EXTT8=
EXTT9=
EXTT10=
EXTT11=
PLAYORDER=
